# xmcd CD database file
#
# Track frame offsets:
#	150
#	12935
#	27550
#	41812
#	53737
#	66690
#	78835
#	93505
#	107707
#	122557
#	136210
#	151615
#	166035
#	180715
#	201177
#	215937
#	227960
#
# Disc length: 3284 seconds
#
# Revision: 3
# Processed by: cddbd v1.5.2PL0 Copyright (c) Steve Scherf et al.
# Submitted via: CDex 1.70beta2
#
DISCID=eb0cd211
DTITLE=Ella Fitzgerald - Lover Come Back To Me [CD 2)
DYEAR=2009
DGENRE=Jazz
TTITLE0=Big Boy Blue
TTITLE1=Dedicated To You
TTITLE2=You Showed Me The Way
TTITLE3=Crying Mood
TTITLE4=Love Is The Thing So They Say
TTITLE5=All Over Nothing At All
TTITLE6=If You Ever Should Leave
TTITLE7=Everyone's Wrong But Me
TTITLE8=Deep In The Heart Of The South
TTITLE9=Just A Simple Melody
TTITLE10=I Got A Guy
TTITLE11=Holiday In Harlem
TTITLE12=Rock It For Me
TTITLE13=I Want To Be Happy
TTITLE14=The Dipsy Doodle
TTITLE15=If Dreams Come True
TTITLE16=Hallelujah!
EXTD=YEAR: 2009
EXTT0=
EXTT1=
EXTT2=
EXTT3=
EXTT4=
EXTT5=
EXTT6=
EXTT7=
EXTT8=
EXTT9=
EXTT10=
EXTT11=
EXTT12=
EXTT13=
EXTT14=
EXTT15=
EXTT16=
PLAYORDER=
